<svg xmlns="http://www.w3.org/2000/svg" viewBox="0 0 800 500" width="100%" height="100%">
  <rect width="800" height="500" fill="#3e2723"/>
  <rect x="0" y="380" width="800" height="120" fill="#2c1d1a"/>
  <line x1="200" y1="0" x2="200" y2="380" stroke="#4e342e" stroke-width="2"/>
  <line x1="400" y1="0" x2="400" y2="380" stroke="#4e342e" stroke-width="2"/>
  <line x1="600" y1="0" x2="600" y2="380" stroke="#4e342e" stroke-width="2"/>
  <rect x="100" y="80" width="600" height="20" fill="#8d6e63" rx="3"/>
  <rect x="100" y="220" width="600" height="20" fill="#8d6e63" rx="3"/>
  <rect x="150" y="100" width="60" height="110" fill="#d7ccc8" rx="5"/>
  <rect x="160" y="120" width="40" height="50" fill="#5d4037" rx="3"/>
  <rect x="250" y="100" width="60" height="110" fill="#bcaaa4" rx="5"/>
  <rect x="260" y="120" width="40" height="50" fill="#4e342e" rx="3"/>
  <rect x="370" y="110" width="70" height="100" fill="#ffffff" fill-opacity="0.2" stroke="#fff" stroke-width="2" rx="8"/>
  <rect x="375" y="120" width="60" height="85" fill="#3e2723" rx="4"/>
  <rect x="380" y="95" width="50" height="15" fill="#8d6e63" rx="3"/>
  <rect x="50" y="340" width="700" height="120" fill="#6d4c41" rx="5"/>
  <rect x="40" y="330" width="720" height="20" fill="#8d6e63" rx="3"/>
  <rect x="500" y="210" width="160" height="120" fill="#b0bec5" rx="8"/>
  <rect x="520" y="230" width="120" height="50" fill="#37474f" rx="4"/>
  <circle cx="540" cy="300" r="10" fill="#cfd8dc"/>
  <circle cx="620" cy="300" r="10" fill="#cfd8dc"/>
  <rect x="280" y="20" width="240" height="45" fill="#212121" rx="8" stroke="#d7ccc8" stroke-width="2"/>
  <text x="400" y="50" fill="#fff" font-family="Arial, sans-serif" font-size="22" font-weight="bold" text-anchor="middle">GALERI KOPI NUSA</text>
</svg>